<mxfile host="app.diagrams.net" modified="2022-05-04T11:19:56.666Z" agent="5.0 (Windows NT 10.0; Win64; x64) AppleWebKit/537.36 (KHTML, like Gecko) Chrome/101.0.4951.41 Safari/537.36 Edg/101.0.1210.32" etag="NBpCCcD7mhzD3E2lNeSu" version="17.5.0" type="github">
  <diagram id="S78mQOmGfPkHg8EKnrC8" name="Page-1">
    <mxGraphModel dx="1038" dy="579" grid="1" gridSize="10" guides="1" tooltips="1" connect="1" arrows="1" fold="1" page="1" pageScale="1" pageWidth="850" pageHeight="1100" math="0" shadow="0">
      <root>
        <mxCell id="0" />
        <mxCell id="1" parent="0" />
        <mxCell id="mQFivV7jxnWSx7zIUIlr-3" value="" style="edgeStyle=orthogonalEdgeStyle;rounded=0;orthogonalLoop=1;jettySize=auto;html=1;" edge="1" parent="1" source="mQFivV7jxnWSx7zIUIlr-1" target="mQFivV7jxnWSx7zIUIlr-2">
          <mxGeometry relative="1" as="geometry" />
        </mxCell>
        <mxCell id="mQFivV7jxnWSx7zIUIlr-1" value="start" style="rounded=1;whiteSpace=wrap;html=1;" vertex="1" parent="1">
          <mxGeometry x="45" y="40" width="90" height="20" as="geometry" />
        </mxCell>
        <mxCell id="mQFivV7jxnWSx7zIUIlr-7" value="" style="edgeStyle=orthogonalEdgeStyle;rounded=0;orthogonalLoop=1;jettySize=auto;html=1;" edge="1" parent="1" source="mQFivV7jxnWSx7zIUIlr-2" target="mQFivV7jxnWSx7zIUIlr-6">
          <mxGeometry relative="1" as="geometry" />
        </mxCell>
        <mxCell id="mQFivV7jxnWSx7zIUIlr-2" value="IF locked&lt;br&gt;sight rng &lt;br&gt;not empty" style="rhombus;whiteSpace=wrap;html=1;" vertex="1" parent="1">
          <mxGeometry x="50" y="110" width="80" height="80" as="geometry" />
        </mxCell>
        <mxCell id="mQFivV7jxnWSx7zIUIlr-9" value="" style="edgeStyle=orthogonalEdgeStyle;rounded=0;orthogonalLoop=1;jettySize=auto;html=1;" edge="1" parent="1" source="mQFivV7jxnWSx7zIUIlr-6" target="mQFivV7jxnWSx7zIUIlr-8">
          <mxGeometry relative="1" as="geometry" />
        </mxCell>
        <mxCell id="mQFivV7jxnWSx7zIUIlr-6" value="call&amp;nbsp;searchTarget" style="rounded=1;whiteSpace=wrap;html=1;fillColor=#d5e8d4;gradientColor=#97d077;strokeColor=#82b366;" vertex="1" parent="1">
          <mxGeometry x="30" y="220" width="120" height="60" as="geometry" />
        </mxCell>
        <mxCell id="mQFivV7jxnWSx7zIUIlr-11" value="" style="edgeStyle=orthogonalEdgeStyle;rounded=0;orthogonalLoop=1;jettySize=auto;html=1;fontSize=9;" edge="1" parent="1" source="mQFivV7jxnWSx7zIUIlr-8" target="mQFivV7jxnWSx7zIUIlr-10">
          <mxGeometry relative="1" as="geometry">
            <Array as="points">
              <mxPoint x="180" y="375" />
              <mxPoint x="180" y="80" />
            </Array>
          </mxGeometry>
        </mxCell>
        <mxCell id="mQFivV7jxnWSx7zIUIlr-8" value="&lt;font style=&quot;font-size: 9px&quot;&gt;IF attack rng &lt;br&gt;not empty and attack rng data has locked sight rng data&amp;nbsp;&lt;/font&gt;" style="rhombus;whiteSpace=wrap;html=1;" vertex="1" parent="1">
          <mxGeometry x="30" y="330" width="120" height="90" as="geometry" />
        </mxCell>
        <mxCell id="mQFivV7jxnWSx7zIUIlr-13" value="" style="edgeStyle=orthogonalEdgeStyle;rounded=0;orthogonalLoop=1;jettySize=auto;html=1;fontSize=9;" edge="1" parent="1" source="mQFivV7jxnWSx7zIUIlr-10" target="mQFivV7jxnWSx7zIUIlr-12">
          <mxGeometry relative="1" as="geometry" />
        </mxCell>
        <mxCell id="mQFivV7jxnWSx7zIUIlr-10" value="IF locked attack rng is empty" style="rhombus;whiteSpace=wrap;html=1;" vertex="1" parent="1">
          <mxGeometry x="210" y="40" width="80" height="80" as="geometry" />
        </mxCell>
        <mxCell id="mQFivV7jxnWSx7zIUIlr-15" value="" style="edgeStyle=orthogonalEdgeStyle;rounded=0;orthogonalLoop=1;jettySize=auto;html=1;fontSize=9;" edge="1" parent="1" source="mQFivV7jxnWSx7zIUIlr-12" target="mQFivV7jxnWSx7zIUIlr-14">
          <mxGeometry relative="1" as="geometry" />
        </mxCell>
        <mxCell id="mQFivV7jxnWSx7zIUIlr-12" value="set the locked attack rng target" style="whiteSpace=wrap;html=1;" vertex="1" parent="1">
          <mxGeometry x="190" y="170" width="120" height="60" as="geometry" />
        </mxCell>
        <mxCell id="mQFivV7jxnWSx7zIUIlr-17" value="" style="edgeStyle=orthogonalEdgeStyle;rounded=0;orthogonalLoop=1;jettySize=auto;html=1;fontSize=9;" edge="1" parent="1" source="mQFivV7jxnWSx7zIUIlr-14" target="mQFivV7jxnWSx7zIUIlr-16">
          <mxGeometry relative="1" as="geometry" />
        </mxCell>
        <mxCell id="mQFivV7jxnWSx7zIUIlr-14" value="call&amp;nbsp;triggerAttack" style="rounded=1;whiteSpace=wrap;html=1;fillColor=#f8cecc;gradientColor=#ea6b66;strokeColor=#b85450;" vertex="1" parent="1">
          <mxGeometry x="190" y="260" width="120" height="60" as="geometry" />
        </mxCell>
        <mxCell id="mQFivV7jxnWSx7zIUIlr-16" value="end" style="ellipse;whiteSpace=wrap;html=1;fontSize=9;" vertex="1" parent="1">
          <mxGeometry x="200" y="355" width="100" height="40" as="geometry" />
        </mxCell>
      </root>
    </mxGraphModel>
  </diagram>
</mxfile>
